<svg width="18" height="18" viewBox="0 0 22 22" fill="none" xmlns="http://www.w3.org/2000/svg">
<path d="M20.6002 9.2H11.2002V12.9H16.7002C16.6002 13.8 16.0002 15.2 14.7002 16.1C13.9002 16.7 12.7002 17.1 11.2002 17.1C8.6002 17.1 6.3002 15.4 5.5002 12.9C5.3002 12.3 5.2002 11.6 5.2002 10.9C5.2002 10.2 5.3002 9.5 5.5002 8.9C5.6002 8.7 5.6002 8.5 5.7002 8.4C6.6002 6.3 8.7002 4.8 11.2002 4.8C13.1002 4.8 14.3002 5.6 15.1002 6.3L17.9002 3.5C16.2002 2 13.9002 1 11.2002 1C7.3002 1 3.9002 3.2 2.3002 6.5C1.6002 7.9 1.2002 9.4 1.2002 11C1.2002 12.6 1.6002 14.1 2.3002 15.5C3.9002 18.8 7.3002 21 11.2002 21C13.9002 21 16.2002 20.1 17.8002 18.6C19.7002 16.9 20.8002 14.3 20.8002 11.2C20.8002 10.4 20.7002 9.8 20.6002 9.2Z" stroke="#17191C" stroke-width="1.5" stroke-miterlimit="10" stroke-linecap="round" stroke-linejoin="round"/>
</svg>
