<svg width="243" height="79" viewBox="0 0 243 79" fill="none" xmlns="http://www.w3.org/2000/svg">
<path d="M47.8742 37.7435C47.5773 38.0404 47.2179 38.3425 46.8586 38.5821L10.8794 67.1342L5.73357 71.2071C4.11899 72.5196 2.4419 73.8373 0.827319 75.155C-0.131014 75.9935 -0.433097 76.2956 0.884611 75.2175L36.8638 46.6602L40.8742 43.4883C36.3221 48.28 40.9315 58.0352 47.2179 58.2748C47.994 58.2748 50.1502 55.9987 50.7492 55.5196C51.5304 54.8633 52.3638 54.2019 53.2023 53.4883C53.3221 53.3685 53.9836 52.6498 54.1607 52.6498C47.8169 52.4102 43.2075 42.53 47.8742 37.7435Z" fill="black"/>
<path d="M66.4862 38.9987L63.5539 41.3946C63.257 41.5717 63.0747 41.6915 62.9549 41.8112C62.4758 42.1706 59.5435 43.9675 59.5435 44.6237C59.6633 47.379 59.1841 50.0717 58.2258 52.6498C56.9081 52.7696 55.4706 52.6498 54.1581 52.6498C53.3768 52.6498 51.3404 54.9206 50.6841 55.3998C49.8456 56.1185 49.0695 56.78 48.231 57.4362C48.0487 57.556 47.4497 58.2748 47.2101 58.2748C49.4862 58.2748 52.0018 58.5717 54.0956 57.4987C55.8924 56.6602 57.4497 55.1029 58.9445 53.905C59.606 53.306 60.382 52.7696 61.1008 52.2279C62.5383 55.5821 65.0487 58.2748 69.0643 58.2748C69.8976 58.2748 71.9341 55.9987 72.5956 55.5196C73.3716 54.8633 74.2101 54.2019 75.0487 53.4883C75.2258 53.3685 75.8247 52.6498 76.007 52.6498C69.1216 52.6498 66.5487 44.7435 66.4862 38.9987ZM54.2779 65.5769C54.0956 63.8998 53.257 62.3477 52.6008 60.7904C52.6581 60.9102 49.3664 63.3633 49.1268 63.5404C48.8299 63.78 45.5383 66.1758 45.6581 66.4154C46.2518 67.7331 46.9706 69.1081 47.2726 70.5456C47.8091 73.3581 46.7935 76.2331 44.5799 78.0873C44.1008 78.5092 45.1789 77.6706 44.9393 77.8477C45.6581 77.3112 46.3143 76.7123 47.0331 76.1758C48.4706 75.0352 49.9081 73.8998 51.2831 72.7019C53.3768 70.905 54.6372 68.3894 54.2779 65.5769ZM61.3404 54.3842C61.3976 54.504 58.1685 56.9571 57.8664 57.1967C57.5695 57.4363 54.3351 59.7696 54.3976 60.0092C54.9966 61.3269 55.7101 62.7071 56.0122 64.1394C56.5487 66.9571 55.5331 69.8894 53.3195 71.6862C52.8976 72.1029 53.9185 71.2644 53.6789 71.4467C54.3976 70.905 55.1164 70.3685 55.7726 69.7696C57.2101 68.629 58.6476 67.4935 60.0226 66.2956C62.1164 64.4987 63.3768 61.9883 63.0174 59.1706C62.8351 57.4987 61.9966 55.9415 61.3404 54.3842Z" fill="black"/>
<path d="M93.776 35.2852C91.2603 35.2279 88.7499 36.004 86.7135 37.504C84.078 39.3581 81.6249 41.4519 79.2291 43.6706C77.0155 45.7644 75.6405 49.5352 76.4166 52.6498H75.9999C75.1614 52.6498 73.1249 54.9206 72.4687 55.4623C71.6874 56.1185 70.8489 56.78 70.0728 57.4363C69.8905 57.556 69.2343 58.2748 69.052 58.2748H85.276C86.4739 58.2748 87.7916 58.3946 89.0468 58.2748H89.1093C90.0676 58.2175 91.0208 57.9779 91.8593 57.5561C94.6145 56.2383 97.0103 53.7227 99.3437 51.8113C101.38 50.1342 102.875 48.3373 102.995 45.5248C102.818 40.4363 99.1041 35.5873 93.776 35.2852ZM96.052 51.1498C95.9895 51.6915 95.9322 52.1706 95.7499 52.6498C92.0416 52.6498 86.651 52.4675 84.2603 49.056C82.703 46.7227 82.8801 43.7279 84.0208 41.155C84.677 41.0352 85.276 40.9727 85.8749 40.9154C87.6718 40.7956 89.4062 41.2123 90.9635 42.1133C94.078 44.0873 95.9895 47.4988 96.052 51.1498Z" fill="black"/>
<path d="M108.791 18.8269C108.254 19.1863 105.317 20.9831 105.317 21.6394V58.2748C105.317 57.7956 108.374 55.879 108.791 55.5196C109.327 55.1029 112.265 53.306 112.265 52.6498V16.0144C112.265 16.4935 109.208 18.4675 108.791 18.8269ZM115.197 3.97792C117.353 1.76438 114.718 0.0300018 112.442 0.868543C110.348 1.58729 108.192 3.68104 106.635 5.17584C104.181 7.63417 104.78 11.0456 107.056 12.78C106.577 13.0196 106.155 13.3165 105.739 13.556L106.036 13.2592L105.379 13.7956C104.004 14.754 102.744 15.7748 101.546 16.9675C102.025 16.4935 102.567 16.0717 103.166 15.655L102.687 16.0144L102.265 16.3113C104.541 14.754 107.473 14.155 110.228 13.9154C110.827 13.8581 111.905 12.5977 112.322 12.2435C112.385 12.181 112.504 12.0613 112.624 11.9415L114.416 10.504C110.885 10.4467 108.374 7.51438 109.51 3.97792C109.567 3.97792 109.687 3.92063 109.806 3.97792C111.905 3.97792 112.385 6.01438 111.004 7.39458C112.265 6.13417 113.937 5.23833 115.197 3.97792Z" fill="black"/>
<path d="M153.56 37.6238V32.1758C153.56 32.655 150.508 34.629 150.086 34.9883C149.55 35.405 146.675 37.1446 146.675 37.8008C146.675 41.3321 147.034 45.0456 146.617 48.5769C146.435 49.7748 146.018 50.9727 145.357 52.0508C144.341 52.3477 143.263 52.53 142.185 52.5873C139.55 52.7696 134.347 52.7071 133.748 49.2331C133.446 47.4988 134.524 45.2852 135.841 44.1498C136.258 43.7904 135.242 44.5665 135.482 44.3894C134.763 44.9258 134.045 45.5248 133.388 46.0613C131.951 47.2019 130.513 48.3373 129.138 49.5352C127.638 50.8529 126.263 53.3686 126.92 55.3425C128.42 59.7696 136.857 58.4519 139.852 57.1394C142.966 55.8217 145.539 53.1863 148.112 51.0925C150.149 49.4154 152.003 47.6811 152.961 45.1654C153.857 42.7696 153.56 40.1342 153.56 37.6238Z" fill="black"/>
<path d="M171.27 51.2123C173.9 48.7592 176.536 46.2435 178.213 43.6706C179.291 41.931 179.708 40.556 179.708 39.181C179.708 34.8685 175.577 31.2748 171.27 31.2748C168.874 31.2748 167.14 32.3529 165.161 33.8529C164.322 34.5092 164.322 34.3321 162.109 36.2435L158.4 39.4206C156.484 41.2123 155.463 43.6706 155.463 46.181C155.463 47.0196 155.525 47.8581 155.765 48.6394C156.843 52.9467 160.312 55.3998 164.322 56.78L163.426 57.556C156.661 63.78 149.718 69.7696 142.655 75.6342C142.416 75.8737 142.296 75.9362 142.296 75.9362C142.296 75.9935 143.853 74.7956 143.973 74.6758L149.062 70.4883L160.192 61.03L164.864 56.9571C168.036 57.8581 171.27 58.2748 174.619 58.2748C175.161 58.2748 176.296 57.1967 177.135 56.3581H177.197C177.254 56.2383 177.254 56.2383 177.317 56.2383L177.374 56.181C177.374 56.1185 177.437 56.1185 177.437 56.1185L177.614 55.9414C177.796 55.7592 177.973 55.5821 178.093 55.5196L180.546 53.4883C180.609 53.4258 180.728 53.306 180.905 53.1862C181.088 52.9467 181.385 52.6498 181.504 52.6498C178.213 52.6498 174.562 52.3477 171.27 51.2123ZM170.129 50.7904C166.239 49.2331 162.947 46.0039 162.411 41.6914L162.348 40.4935C162.348 39.3581 162.411 38.1602 162.947 37.1446C163.489 37.0248 163.968 37.0248 164.504 37.0248C168.874 37.0248 172.827 40.6133 172.827 44.8633C172.827 46.6029 172.166 47.9206 171.208 49.2956L170.129 50.7904ZM181.385 52.6498C181.208 52.6498 179.77 53.4883 179.827 53.4258C178.989 54.0821 178.15 54.7435 177.317 55.3998C176.536 56.1185 175.697 56.78 174.921 57.4362C174.739 57.556 174.619 58.2748 174.442 58.2748H178.452C178.629 58.2748 179.468 57.4987 179.468 57.4987C180.306 56.8373 181.145 56.181 181.926 55.5196C182.76 54.8633 183.598 54.2019 184.379 53.4883C184.556 53.3685 185.218 52.6498 185.395 52.6498H181.385Z" fill="black"/>
<path d="M195.683 37.9831C195.683 37.6237 195.683 37.3217 195.683 36.9623C195.683 36.4258 195.683 35.8842 195.683 35.2852V16.0144C195.683 16.4935 192.63 18.4675 192.151 18.8269C191.672 19.1862 188.74 20.9831 188.74 21.6394V38.879C188.74 40.4362 188.74 41.9935 188.797 43.4883C188.797 46.6602 188.558 49.7748 187.36 52.4675C186.703 52.5873 185.985 52.6498 185.328 52.6498C184.49 52.7071 182.511 54.9206 181.797 55.4623C181.016 56.1185 180.177 56.78 179.401 57.4363C179.219 57.556 178.563 58.2748 178.38 58.2748C180.776 58.2175 183.052 57.4363 184.969 55.9987C184.906 56.0612 184.906 56.0612 184.906 56.0612L185.026 55.9987C185.448 55.7019 185.808 55.3998 186.224 55.0404C187.542 54.0248 189.037 52.9467 190.417 51.8112C191.729 55.28 194.188 58.155 198.136 58.2748C198.917 58.2748 201.068 55.9987 201.667 55.5196C202.505 54.8633 203.287 54.2019 204.125 53.4883C204.302 53.3685 204.901 52.6498 205.078 52.6498C197.896 52.4675 196.042 43.7279 195.683 37.9831Z" fill="black"/>
<path d="M213.576 31.3946C214.294 30.9154 215.013 30.3217 215.669 29.78C217.107 28.5821 218.544 27.4467 219.919 26.2487C222.013 24.4519 223.274 21.9362 222.914 19.1237C222.732 17.4467 221.893 15.8946 221.237 14.3373C221.294 14.4571 218.065 16.9102 217.763 17.1498C217.466 17.3894 214.232 19.7227 214.294 19.9623C214.893 21.3425 215.607 22.655 215.909 24.0925C216.446 26.905 215.43 29.8425 213.216 31.6967C212.794 32.056 213.815 31.2748 213.576 31.3946ZM231.232 38.9414C228.482 37.9206 225.966 36.4831 223.211 35.4675C220.279 34.3894 217.404 34.1498 214.591 35.7644C212.737 36.7852 211.117 38.28 209.503 39.5977C207.586 41.155 205.675 42.5925 203.998 44.3894C205.133 43.1289 206.571 42.1706 207.946 41.2123C208.185 41.0925 208.367 40.9727 208.544 40.9154C209.143 40.6133 209.742 40.4362 210.404 40.2539C211.477 40.0769 212.617 40.1342 213.696 40.3737C215.727 40.7331 217.643 41.6342 219.503 42.4727C221.836 43.6081 224.232 44.5039 226.742 45.2852C226.383 45.4623 226.086 45.7019 225.784 45.8842C219.383 50.1914 212.857 52.5873 205.076 52.6498C204.237 52.6498 202.201 54.9206 201.544 55.3998C200.763 56.0612 199.925 56.78 199.149 57.4362C198.966 57.556 198.31 58.2748 198.128 58.2748C205.972 58.2175 212.435 55.8217 218.841 51.5092C221.055 50.0144 223.274 48.4571 225.727 47.5612C228.899 46.3633 232.253 46.6029 235.602 46.6029C235.784 46.6029 236.024 46.5404 236.143 46.4206C236.982 45.8217 237.701 45.2227 238.419 44.5039C238.716 44.2071 238.956 43.9675 239.076 43.8477C239.914 43.1914 240.753 42.53 241.529 41.8737C241.591 41.8112 241.591 41.8112 241.649 41.7539C241.888 41.4519 242.19 41.2123 242.43 41.0352C242.487 41.0352 242.487 41.0352 242.55 40.9727C238.654 40.9727 234.826 40.3164 231.232 38.9414Z" fill="black"/>
</svg>
