<svg width="438" height="438" viewBox="0 0 438 438" fill="none" xmlns="http://www.w3.org/2000/svg">
<rect width="438" height="438" rx="219" fill="#CCAEC8" fill-opacity="0.14"/>
<path fill-rule="evenodd" clip-rule="evenodd" d="M139.727 96C133.803 96 129 100.803 129 106.727V331.273C129 337.197 133.803 342 139.727 342H302.773C308.697 342 313.5 337.197 313.5 331.273V126.75L297.767 111.733L282.75 96H139.727Z" fill="#A93396" fill-opacity="0.14"/>
<path d="M313.5 126.75H282.75V96L298.483 111.017L313.5 126.75Z" fill="#A93396"/>
<path d="M172.628 229.175V224.141L187.594 202.722H195.054V223.592H199.081V229.175H195.054V235.674H188.646V229.175H172.628ZM189.058 209.587L179.676 223.592H189.058V209.587ZM208.882 218.557C208.882 213.279 209.827 209.144 211.719 206.154C213.641 203.164 216.815 201.669 221.239 201.669C225.663 201.669 228.821 203.164 230.713 206.154C232.635 209.144 233.596 213.279 233.596 218.557C233.596 223.866 232.635 228.031 230.713 231.052C228.821 234.072 225.663 235.583 221.239 235.583C216.815 235.583 213.641 234.072 211.719 231.052C209.827 228.031 208.882 223.866 208.882 218.557ZM227.28 218.557C227.28 216.299 227.127 214.408 226.822 212.882C226.548 211.326 225.968 210.06 225.083 209.083C224.229 208.107 222.947 207.619 221.239 207.619C219.53 207.619 218.233 208.107 217.348 209.083C216.494 210.06 215.914 211.326 215.609 212.882C215.335 214.408 215.197 216.299 215.197 218.557C215.197 220.876 215.335 222.829 215.609 224.416C215.884 225.972 216.464 227.238 217.348 228.214C218.233 229.16 219.53 229.633 221.239 229.633C222.947 229.633 224.244 229.16 225.129 228.214C226.014 227.238 226.594 225.972 226.868 224.416C227.143 222.829 227.28 220.876 227.28 218.557ZM243.916 229.175V224.141L258.882 202.722H266.342V223.592H270.369V229.175H266.342V235.674H259.934V229.175H243.916ZM260.346 209.587L250.964 223.592H260.346V209.587Z" fill="#A93396"/>
<circle cx="136.25" cy="328.25" r="26.25" stroke="#33363F" stroke-width="7.5"/>
<path d="M170 362L158.75 350.75" stroke="#33363F" stroke-width="7.5" stroke-linecap="round"/>
</svg>
