<svg width="60" height="60" viewBox="0 0 60 60" fill="none" xmlns="http://www.w3.org/2000/svg">
<path d="M55 19.525V40.475C55 47.5 51.775 52.3249 46.1 54.1499C44.45 54.7249 42.55 55 40.475 55H19.525C17.45 55 15.55 54.7249 13.9 54.1499C8.22499 52.3249 5 47.5 5 40.475V19.525C5 10.425 10.425 5 19.525 5H40.475C49.575 5 55 10.425 55 19.525Z" fill="#A93396"/>
<path d="M46.1004 54.1498C44.4504 54.7248 42.5504 54.9999 40.4754 54.9999H19.5254C17.4504 54.9999 15.5504 54.7248 13.9004 54.1498C14.7754 47.5498 21.6754 42.4248 30.0004 42.4248C38.3254 42.4248 45.2254 47.5498 46.1004 54.1498Z" fill="white"/>
<path d="M38.9498 28.95C38.9498 33.9 34.9498 37.925 29.9998 37.925C25.0498 37.925 21.0498 33.9 21.0498 28.95C21.0498 24 25.0498 20 29.9998 20C34.9498 20 38.9498 24 38.9498 28.95Z" fill="white"/>
</svg>
